<?xml version="1.0" standalone="no"?>
<!DOCTYPE svg PUBLIC "-//W3C//DTD SVG 20010904//EN"
 "http://www.w3.org/TR/2001/REC-SVG-20010904/DTD/svg10.dtd">
<svg version="1.0" xmlns="http://www.w3.org/2000/svg"
 width="275.000000pt" height="183.000000pt" viewBox="0 0 275.000000 183.000000"
 preserveAspectRatio="xMidYMid meet">
<metadata>
Created by potrace 1.15, written by Peter Selinger 2001-2017
</metadata>
<g transform="translate(0.000000,183.000000) scale(0.100000,-0.100000)"
fill="#000000" stroke="none">
<path d="M2523 1250 c-24 -11 -53 -28 -65 -40 -12 -11 -29 -20 -37 -21 -11 0
-12 -2 -3 -6 27 -11 10 -23 -29 -20 -22 2 -42 0 -45 -5 -3 -4 -15 -8 -27 -7
-12 0 -33 -3 -47 -6 -64 -13 -81 -13 -87 2 -5 12 -7 12 -14 1 -6 -10 -11 -10
-21 0 -6 6 -19 12 -27 11 -11 0 -10 -3 4 -9 19 -8 19 -9 -2 -9 -15 -1 -23 5
-23 15 0 8 -4 13 -9 10 -17 -11 -42 6 -37 23 4 11 1 10 -10 -4 -16 -20 -16
-20 -11 2 3 16 1 20 -10 16 -8 -3 -19 0 -23 7 -7 11 -11 11 -25 0 -13 -11 -18
-11 -24 -1 -5 7 -19 11 -32 10 -13 -2 -30 0 -37 5 -8 5 -69 7 -135 6 -67 -1
-144 -1 -172 -1 -191 2 -288 0 -296 -4 -5 -4 -9 -2 -9 3 0 11 -33 12 -40 1 -3
-4 -21 -4 -40 0 -19 4 -60 6 -90 4 -64 -4 -54 -4 -240 0 -80 1 -150 6 -155 9
-6 3 -21 4 -35 3 -232 -20 -216 -18 -297 -30 -71 -10 -70 -31 2 -40 30 -3 64
-4 75 0 11 3 20 2 20 -3 0 -5 11 -7 24 -5 13 3 26 1 30 -5 3 -5 17 -7 31 -5
15 3 22 10 18 17 -4 6 -1 6 9 -2 18 -15 64 -9 60 8 -1 6 1 9 6 6 4 -2 25 -1
45 4 20 4 39 5 42 1 2 -4 26 -6 52 -4 55 3 90 4 149 1 41 -2 41 -3 26 -25 -8
-13 -17 -21 -20 -18 -3 2 -11 0 -19 -6 -9 -9 -13 -8 -13 0 0 9 -6 8 -22 -1
-27 -15 -40 -17 -53 -7 -10 6 -31 5 -70 -5 -11 -2 -23 -5 -27 -5 -4 -1 -1 -18
6 -38 7 -21 21 -73 30 -115 10 -43 21 -78 26 -78 4 0 10 -24 13 -52 3 -29 8
-67 12 -85 6 -26 4 -32 -14 -38 -29 -9 -39 0 -52 48 -6 23 -16 48 -21 55 -12
13 -66 16 -85 4 -10 -6 -43 -82 -43 -98 0 -2 16 -4 35 -4 19 0 35 -4 35 -10 0
-6 -32 -11 -72 -12 -48 -1 -59 -3 -30 -5 23 -2 42 -8 42 -12 0 -5 16 -7 35 -4
40 5 48 -12 10 -21 -52 -13 -21 -21 82 -21 81 0 107 -3 105 -12 -1 -7 4 -13
10 -13 7 -1 77 -2 156 -4 79 -2 146 -6 149 -10 6 -6 -70 -8 -199 -7 -32 0 -58
-3 -58 -7 0 -8 318 -16 590 -15 113 1 167 -3 172 -11 6 -8 8 -8 8 2 0 8 20 12
65 12 36 0 65 -4 65 -9 0 -5 16 -5 37 0 21 4 39 6 42 3 2 -2 -1 -4 -7 -4 -7 0
-12 -9 -12 -20 0 -22 28 -40 60 -40 15 0 20 -5 17 -14 -6 -15 19 -43 29 -33 3
3 -2 19 -10 36 -9 16 -16 39 -16 49 0 24 30 52 56 52 25 0 116 -79 153 -134
55 -79 94 -109 161 -121 3 0 26 -9 52 -19 61 -24 83 -16 74 25 -8 40 -40 85
-67 92 -16 4 -19 2 -15 -10 6 -13 4 -14 -9 -3 -15 12 -15 14 0 23 16 8 35 14
60 17 6 0 2 5 -8 11 -18 10 -18 11 0 25 11 8 13 13 6 14 -19 0 -15 18 5 22 13
3 10 8 -14 21 -45 23 -132 114 -136 140 -4 32 -61 34 -113 5 -57 -32 -214 -36
-262 -6 -18 11 -33 22 -33 25 0 3 15 -4 33 -15 32 -18 34 -18 45 -2 8 13 30
19 89 23 64 5 93 14 161 48 69 35 86 40 105 31 12 -6 72 -54 132 -106 72 -62
118 -96 134 -96 36 0 93 37 123 81 17 23 36 39 48 39 16 0 20 7 20 35 0 28 -4
35 -19 35 -15 0 -19 6 -17 28 2 15 10 28 20 30 14 3 16 26 16 198 l0 194 -27
6 c-16 3 -33 7 -39 9 -6 2 -28 0 -47 -5 -27 -6 -39 -4 -48 6 -14 17 -14 17
-66 -6z m-768 -141 c4 -6 2 -29 -3 -52 -6 -23 -13 -57 -16 -74 l-5 -33 45 0
c32 0 46 -5 51 -16 9 -24 -23 -44 -69 -44 -44 0 -44 2 -28 -165 11 -112 7
-135 -21 -135 -26 0 -39 36 -40 113 -1 34 -4 87 -7 117 l-7 55 -45 0 c-38 0
-45 3 -45 20 0 14 12 24 44 36 52 19 56 26 65 109 4 35 10 68 12 72 8 12 62
10 69 -3z m-746 -102 c55 -27 72 -51 50 -72 -13 -13 -19 -13 -54 5 -39 20 -76
26 -88 14 -13 -14 8 -34 69 -64 78 -38 93 -62 70 -111 -18 -39 -46 -59 -95
-70 -64 -14 -141 40 -110 77 15 19 36 18 47 -3 19 -33 102 -14 102 23 0 8 -30
29 -66 46 -110 53 -123 111 -34 156 54 27 54 27 109 -1z m250 -5 c48 -23 62
-49 37 -67 -17 -13 -24 -12 -56 6 -40 23 -85 22 -85 -1 0 -8 31 -30 68 -50 81
-41 93 -57 77 -105 -22 -68 -130 -102 -187 -59 -32 24 -36 52 -10 68 15 9 21
7 32 -8 27 -36 105 -16 105 26 0 4 -28 22 -62 38 -34 16 -70 37 -80 46 -37 34
-12 91 52 118 37 16 54 14 109 -12z m249 -27 c21 -23 32 -45 32 -65 0 -25 -9
-35 -57 -66 -73 -46 -70 -42 -50 -61 15 -15 21 -15 53 -4 25 9 39 10 46 3 26
-26 -22 -62 -81 -62 -126 0 -181 241 -66 291 38 16 88 2 123 -36z m767 -85 c0
-55 -3 -65 -19 -68 -20 -4 -44 14 -33 24 4 4 13 1 22 -6 13 -11 15 -8 15 16 0
21 -7 32 -25 40 -28 13 -35 9 -35 -21 0 -31 -9 -36 -40 -20 -20 10 -30 11 -38
3 -8 -8 -14 -5 -20 12 -7 20 -10 21 -15 6 -10 -26 -25 -10 -24 26 2 25 7 32
25 33 17 1 26 -6 33 -24 7 -16 13 -21 17 -14 4 7 19 17 32 22 23 10 23 11 3 8
-12 -1 -23 3 -25 8 -4 14 40 19 56 6 10 -8 17 -7 26 4 7 9 20 14 29 13 13 -3
16 -17 16 -68z"/>
<path d="M535 1096 c-27 -16 -42 -19 -47 -12 -5 6 -8 2 -8 -10 0 -22 -41 -41
-61 -28 -5 3 -22 -2 -37 -12 -19 -13 -50 -19 -102 -21 -120 -4 -119 -4 -90
-13 l25 -8 -27 -1 c-39 -1 -57 -11 -51 -27 7 -19 -24 -18 -61 1 -38 20 -45 19
-39 -6 4 -13 13 -20 27 -18 34 2 42 -2 21 -11 -18 -7 -16 -9 13 -15 37 -9 42
-24 10 -33 -18 -4 -13 -9 32 -29 29 -12 59 -23 67 -23 8 0 32 -12 54 -27 38
-28 49 -43 29 -43 -20 0 -9 -18 15 -24 14 -4 25 -11 25 -16 0 -6 46 -10 115
-10 l115 0 0 31 c0 16 6 51 14 77 21 68 63 221 71 261 l7 34 -42 -7 c-27 -4
-39 -3 -35 4 8 12 9 13 -40 -14z"/>
</g>
</svg>
